<?xml version="1.0" encoding="UTF-8"?>
<svg version="1.1" xmlns="http://www.w3.org/2000/svg" width="500" height="500">
<path d="M0 0 C2.95760813 1.04223764 5.95817302 1.91926643 8.96728516 2.79980469 C18.98630601 5.87651188 29.01246327 9.2181721 38.04541016 14.60058594 C40.22107058 15.80882484 42.38740636 16.67800364 44.71728516 17.54980469 C51.21457431 20.04565293 57.22195083 23.42662208 63.31298828 26.76757812 C64.89307489 27.628734 66.48414393 28.46967017 68.07666016 29.30761719 C75.06652289 33.00456771 81.58429887 37.25266272 88.09228516 41.73730469 C88.93662109 42.31480469 89.78095703 42.89230469 90.65087891 43.48730469 C96.38687809 47.45202733 101.96860135 51.6097163 107.52587891 55.81933594 C109.34340216 57.17763719 111.20436082 58.47868847 113.09228516 59.73730469 C113.09228516 60.39730469 113.09228516 61.05730469 113.09228516 61.73730469 C113.80771484 61.97449219 114.52314453 62.21167969 115.26025391 62.45605469 C118.55248927 63.94550738 120.73979363 65.80525316 123.40478516 68.23730469 C124.28779297 69.03136719 125.17080078 69.82542969 126.08056641 70.64355469 C128.09228516 72.73730469 128.09228516 72.73730469 128.09228516 74.73730469 C128.64916016 74.96417969 129.20603516 75.19105469 129.77978516 75.42480469 C132.73923605 77.10449303 134.75355299 79.27863754 137.09228516 81.73730469 C137.69041016 82.33542969 138.28853516 82.93355469 138.90478516 83.54980469 C139.29666016 83.94167969 139.68853516 84.33355469 140.09228516 84.73730469 C139.76228516 85.72730469 139.43228516 86.71730469 139.09228516 87.73730469 C138.43228516 87.73730469 137.77228516 87.73730469 137.09228516 87.73730469 C137.09228516 88.39730469 137.09228516 89.05730469 137.09228516 89.73730469 C136.43228516 89.73730469 135.77228516 89.73730469 135.09228516 89.73730469 C134.73650391 90.58035156 134.73650391 90.58035156 134.37353516 91.44042969 C132.80280819 94.2562451 130.87757051 96.21685885 128.59228516 98.48730469 C127.79822266 99.28652344 127.00416016 100.08574219 126.18603516 100.90917969 C124.09228516 102.73730469 124.09228516 102.73730469 122.09228516 102.73730469 C122.09228516 103.39730469 122.09228516 104.05730469 122.09228516 104.73730469 C121.43228516 104.73730469 120.77228516 104.73730469 120.09228516 104.73730469 C119.73650391 105.58035156 119.73650391 105.58035156 119.37353516 106.44042969 C117.80280819 109.2562451 115.87757051 111.21685885 113.59228516 113.48730469 C112.40119141 114.68613281 112.40119141 114.68613281 111.18603516 115.90917969 C109.09228516 117.73730469 109.09228516 117.73730469 107.09228516 117.73730469 C107.09228516 118.39730469 107.09228516 119.05730469 107.09228516 119.73730469 C105.40478516 120.54980469 105.40478516 120.54980469 103.09228516 120.73730469 C100.71728516 118.61230469 100.71728516 118.61230469 98.09228516 115.73730469 C97.00061274 114.82628728 95.89645508 113.93000334 94.77978516 113.04980469 C93.89291016 112.28667969 93.00603516 111.52355469 92.09228516 110.73730469 C92.09228516 110.07730469 92.09228516 109.41730469 92.09228516 108.73730469 C90.77228516 108.07730469 89.45228516 107.41730469 88.09228516 106.73730469 C88.09228516 106.07730469 88.09228516 105.41730469 88.09228516 104.73730469 C87.04041016 104.39699219 87.04041016 104.39699219 85.96728516 104.04980469 C82.35099981 102.39889181 80.00458539 100.44642119 77.09228516 97.73730469 C77.09228516 97.07730469 77.09228516 96.41730469 77.09228516 95.73730469 C76.06361328 95.39119141 76.06361328 95.39119141 75.01416016 95.03808594 C71.43488102 93.44463681 68.4638865 91.25342891 65.34228516 88.92480469 C60.12274654 85.10465778 54.8850385 81.6490061 49.09228516 78.73730469 C49.09228516 78.07730469 49.09228516 77.41730469 49.09228516 76.73730469 C48.30853516 76.53105469 47.52478516 76.32480469 46.71728516 76.11230469 C41.79424857 74.24494598 37.55393666 71.50709794 33.09228516 68.73730469 C28.38673323 65.83239737 23.58655962 63.66054906 18.43603516 61.67480469 C16.09228516 60.73730469 16.09228516 60.73730469 13.02978516 59.17480469 C9.9494697 57.66741627 6.90821626 56.64167458 3.64697266 55.60449219 C0.92545462 54.68067414 -1.69046195 53.58805589 -4.34521484 52.48730469 C-20.14859268 46.36627806 -36.98162759 42.38809981 -53.74902344 40.05664062 C-55.96481309 39.72885812 -58.16190994 39.33798864 -60.36474609 38.93261719 C-100.5384309 31.79437 -145.29880845 35.13547314 -184.04833984 47.80761719 C-186.11017478 48.47799521 -188.18999836 49.09390729 -190.27880859 49.67480469 C-194.17362004 50.81515852 -197.93087614 52.16736965 -201.72021484 53.61230469 C-202.76689331 54.00712036 -202.76689331 54.00712036 -203.8347168 54.40991211 C-208.521532 56.18527836 -213.17488437 58.03094443 -217.79443359 59.97558594 C-220.14114342 60.82144253 -222.45429339 61.30333697 -224.90771484 61.73730469 C-224.90771484 62.39730469 -224.90771484 63.05730469 -224.90771484 63.73730469 C-226.00083984 64.10855469 -227.09396484 64.47980469 -228.22021484 64.86230469 C-237.31738455 68.27975998 -245.66920974 73.64181309 -253.90771484 78.73730469 C-254.94412109 79.37152344 -255.98052734 80.00574219 -257.04833984 80.65917969 C-267.84465449 87.3685416 -278.00586856 94.99985152 -287.77880859 103.12402344 C-289.90771484 104.73730469 -289.90771484 104.73730469 -291.90771484 104.73730469 C-291.90771484 105.39730469 -291.90771484 106.05730469 -291.90771484 106.73730469 C-292.56771484 106.73730469 -293.22771484 106.73730469 -293.90771484 106.73730469 C-294.12685547 107.29933594 -294.34599609 107.86136719 -294.57177734 108.44042969 C-296.34097599 111.48220982 -298.56743132 113.25975306 -301.28271484 115.48730469 C-302.23919922 116.28652344 -303.19568359 117.08574219 -304.18115234 117.90917969 C-306.90771484 119.73730469 -306.90771484 119.73730469 -310.90771484 119.73730469 C-310.90771484 119.07730469 -310.90771484 118.41730469 -310.90771484 117.73730469 C-311.44912109 117.52074219 -311.99052734 117.30417969 -312.54833984 117.08105469 C-315.72416828 115.27230472 -318.11499566 112.82006669 -320.65771484 110.23730469 C-321.41761719 109.48900391 -321.41761719 109.48900391 -322.19287109 108.72558594 C-325.90771484 104.99071608 -325.90771484 104.99071608 -325.90771484 102.73730469 C-326.77396484 102.36605469 -326.77396484 102.36605469 -327.65771484 101.98730469 C-330.23711464 100.5543048 -331.96893076 98.95305792 -333.90771484 96.73730469 C-333.90771484 96.07730469 -333.90771484 95.41730469 -333.90771484 94.73730469 C-334.50583984 94.46917969 -335.10396484 94.20105469 -335.72021484 93.92480469 C-337.90619338 92.73813062 -339.32104078 91.64131356 -340.90771484 89.73730469 C-340.90771484 89.07730469 -340.90771484 88.41730469 -340.90771484 87.73730469 C-341.89771484 87.40730469 -342.88771484 87.07730469 -343.90771484 86.73730469 C-342.33612336 82.87976196 -339.89693997 80.59367536 -336.90771484 77.73730469 C-336.41400391 77.22296875 -335.92029297 76.70863281 -335.41162109 76.17871094 C-330.30266525 70.87372801 -324.66530673 66.31720732 -318.90771484 61.73730469 C-318.34568359 61.28774414 -317.78365234 60.83818359 -317.20458984 60.375 C-303.05535323 49.06656698 -288.37274836 38.554231 -272.34130859 30.06152344 C-270.18676349 28.88914657 -268.14727288 27.64036692 -266.09521484 26.29980469 C-259.14564193 21.87213864 -251.42340781 17.89027616 -243.65771484 15.11230469 C-240.70982454 14.03141158 -238.22046656 12.8851561 -235.47021484 11.42480469 C-224.51130098 5.83626209 -212.37250952 2.45499376 -200.63427734 -1.11425781 C-198.38971297 -1.80597891 -196.15226178 -2.52244427 -193.93115234 -3.28613281 C-182.25024394 -7.22174885 -170.01564887 -9.10382959 -157.90771484 -11.26269531 C-156.90724121 -11.44525879 -155.90676758 -11.62782227 -154.87597656 -11.81591797 C-105.01922891 -20.59782911 -47.73886876 -17.18229764 0 0 Z " fill="#9898E0" transform="translate(351.90771484375,78.2626953125)"/>
<path d="M0 0 C1.2387085 0.33136963 1.2387085 0.33136963 2.50244141 0.66943359 C24.98346558 6.76849199 44.86299475 16.43193315 65 28 C65 28.66 65 29.32 65 30 C65.66 30.226875 66.32 30.45375 67 30.6875 C70.88658628 32.3878815 74.63679817 34.39623084 78 37 C78 37.66 78 38.32 78 39 C79.98 39.66 81.96 40.32 84 41 C84 41.66 84 42.32 84 43 C84.66 43 85.32 43 86 43 C86 43.66 86 44.32 86 45 C86.54140625 45.2371875 87.0828125 45.474375 87.640625 45.71875 C90.63250137 47.34347757 93.11159399 49.3501877 95.75 51.5 C96.73484375 52.2940625 97.7196875 53.088125 98.734375 53.90625 C99.48203125 54.5971875 100.2296875 55.288125 101 56 C101 56.66 101 57.32 101 58 C101.66 58 102.32 58 103 58 C103.66 59.65 104.32 61.3 105 63 C103.38113585 64.67262717 101.7547271 66.33795537 100.125 68 C99.22007812 68.928125 98.31515625 69.85625 97.3828125 70.8125 C95 73 95 73 93 73 C93 73.66 93 74.32 93 75 C92.34 75 91.68 75 91 75 C90.64421875 75.84304687 90.64421875 75.84304687 90.28125 76.703125 C88.71052303 79.51894042 86.78528536 81.47955416 84.5 83.75 C83.7059375 84.54921875 82.911875 85.3484375 82.09375 86.171875 C80 88 80 88 78 88 C78 88.66 78 89.32 78 90 C77.34 90 76.68 90 76 90 C75.5978125 90.8971875 75.5978125 90.8971875 75.1875 91.8125 C74.01506533 93.97224808 72.80630718 95.35790256 71 97 C67.66272214 95.82744291 65.22562513 94.81131596 63 92 C63 91.34 63 90.68 63 90 C62.44183594 89.75121094 61.88367188 89.50242187 61.30859375 89.24609375 C58.60678529 87.7877572 56.42733283 86.01922609 54.0625 84.0625 C51.49036002 81.93561455 49.07583856 80.04386225 46.18359375 78.37109375 C45.46300781 77.91863281 44.74242187 77.46617187 44 77 C44 76.34 44 75.68 44 75 C42.824375 74.7215625 42.824375 74.7215625 41.625 74.4375 C38.3801317 73.15074188 36.3843391 71.9211991 33.625 69.875 C25.11070692 63.71791665 15.19443466 58.61025313 5.09375 55.6328125 C2.734487 54.91975167 0.48209406 54.02442421 -1.8125 53.125 C-36.38943424 40.62558194 -73.39514874 40.18526158 -108.875 48.875 C-109.83043701 49.10719238 -110.78587402 49.33938477 -111.77026367 49.57861328 C-117.6479692 51.11130037 -123.00198572 53.19937671 -128.47216797 55.83911133 C-131.02552903 57.01172402 -133.5828448 57.9338024 -136.25 58.8125 C-141.01791268 60.49569684 -145.41799124 62.63526703 -149.875 65 C-150.50567383 65.33233643 -151.13634766 65.66467285 -151.78613281 66.00708008 C-155.51333282 68.0282164 -158.73575826 70.30784186 -162 73 C-163.14704332 73.69989084 -164.31190084 74.37232497 -165.5 75 C-168.61658648 76.73218004 -171.25279835 78.71066529 -174 81 C-175.55638652 82.25760377 -177.11940386 83.50702746 -178.6875 84.75 C-179.45449219 85.36359375 -180.22148437 85.9771875 -181.01171875 86.609375 C-183 88 -183 88 -185 88 C-185.20625 88.556875 -185.4125 89.11375 -185.625 89.6875 C-187.55000774 92.92501302 -190.03850902 94.68231141 -193 97 C-196.5218253 95.04343039 -199.34442785 93.04899025 -202 90 C-202 89.34 -202 88.68 -202 88 C-202.54140625 87.7834375 -203.0828125 87.566875 -203.640625 87.34375 C-206.81645344 85.53500003 -209.20728081 83.08276201 -211.75 80.5 C-212.50990234 79.75169922 -212.50990234 79.75169922 -213.28515625 78.98828125 C-217 75.25341139 -217 75.25341139 -217 73 C-217.86625 72.62875 -217.86625 72.62875 -218.75 72.25 C-221.32939979 70.81700012 -223.06121592 69.21575324 -225 67 C-225 66.34 -225 65.68 -225 65 C-226.32 64.34 -227.64 63.68 -229 63 C-227.44655489 59.18699836 -224.96704653 56.74196024 -222 54 C-221.18144531 53.23429687 -220.36289063 52.46859375 -219.51953125 51.6796875 C-212.26400862 45 -212.26400862 45 -210 45 C-210 44.34 -210 43.68 -210 43 C-204.58823529 39 -204.58823529 39 -202 39 C-202 38.34 -202 37.68 -202 37 C-199.73701547 35.3633245 -197.48732888 33.85434489 -195.125 32.375 C-194.47402344 31.95476562 -193.82304687 31.53453125 -193.15234375 31.1015625 C-188.26838981 28 -188.26838981 28 -186 28 C-186 27.34 -186 26.68 -186 26 C-185.45214844 25.731875 -184.90429688 25.46375 -184.33984375 25.1875 C-180.50456599 23.29168791 -176.6958175 21.39786718 -172.98046875 19.2734375 C-154.6877652 8.92389859 -134.71462361 1.59225356 -114.13330078 -2.55322266 C-111.22824253 -3.16162922 -108.37086169 -3.93586954 -105.5 -4.6875 C-71.20953554 -12.35601556 -33.5572078 -9.03175835 0 0 Z " fill="#9898E0" transform="translate(312,177)"/>
<path d="M0 0 C1.09707275 0.20882813 1.09707275 0.20882813 2.21630859 0.421875 C11.52303496 2.20519981 19.51269355 4.78353439 27.8515625 9.31640625 C31.01139003 11.06515598 31.01139003 11.06515598 34.49609375 12.4921875 C37.96432705 13.9846491 41.17013592 15.67387382 44.4375 17.5625 C45.48808594 18.16191406 46.53867187 18.76132812 47.62109375 19.37890625 C48.40613281 19.91386719 49.19117188 20.44882812 50 21 C50 21.66 50 22.32 50 23 C50.69480469 23.21398437 51.38960937 23.42796875 52.10546875 23.6484375 C55.83244517 25.38869909 58.36392593 27.80182094 61.3125 30.625 C61.86228516 31.140625 62.41207031 31.65625 62.97851562 32.1875 C64.32498054 33.45200618 65.66332535 34.72514922 67 36 C65.43622501 39.32302186 63.78646849 41.56184007 61 44 C60.34 44 59.68 44 59 44 C59 44.66 59 45.32 59 46 C58.34 46 57.68 46 57 46 C56.7628125 46.56203125 56.525625 47.1240625 56.28125 47.703125 C54.71052303 50.51894042 52.78528536 52.47955416 50.5 54.75 C49.7059375 55.54921875 48.911875 56.3484375 48.09375 57.171875 C46 59 46 59 44 59 C44 59.66 44 60.32 44 61 C43.34 61 42.68 61 42 61 C41.73960937 61.58136719 41.47921875 62.16273438 41.2109375 62.76171875 C39.91871022 65.15025497 38.50719402 66.86044288 36.625 68.8125 C35.74714844 69.75029297 35.74714844 69.75029297 34.8515625 70.70703125 C33 72 33 72 31.07104492 71.73071289 C27.09933129 70.32939981 24.12032474 66.93034922 21.04101562 64.125 C17.25180305 60.7786824 13.76196796 58.85908891 9 57 C7.70097625 56.32680151 6.40683974 55.64410692 5.1171875 54.953125 C-12.03789423 46.29726925 -34.57459704 47.03342761 -52.63330078 52.18554688 C-58.30022107 54.13570637 -63.48941422 57.07312252 -68.65625 60.07421875 C-72 62 -72 62 -75 63 C-75 63.66 -75 64.32 -75 65 C-76.609375 66.47265625 -76.609375 66.47265625 -78.75 68.0625 C-79.44609375 68.58972656 -80.1421875 69.11695313 -80.859375 69.66015625 C-82.97710369 70.98566891 -84.5287321 71.68585578 -87 72 C-88.75 70.6875 -88.75 70.6875 -90 69 C-90 68.34 -90 67.68 -90 67 C-90.86625 66.62875 -90.86625 66.62875 -91.75 66.25 C-94.32939979 64.81700012 -96.06121592 63.21575324 -98 61 C-98 60.34 -98 59.68 -98 59 C-98.54140625 58.7834375 -99.0828125 58.566875 -99.640625 58.34375 C-102.81645344 56.53500003 -105.20728081 54.08276201 -107.75 51.5 C-108.25660156 51.00113281 -108.76320312 50.50226563 -109.28515625 49.98828125 C-113 46.25341139 -113 46.25341139 -113 44 C-113.5775 43.7525 -114.155 43.505 -114.75 43.25 C-117.38288682 41.7872851 -119.12450669 40.36173231 -121 38 C-121.125 36 -121.125 36 -120 34 C-118.03277992 32.61876037 -116.03131672 31.28511874 -114 30 C-113.34 29.01 -112.68 28.02 -112 27 C-111.01 27 -110.02 27 -109 27 C-109 26.34 -109 25.68 -109 25 C-98.1229835 14.65280952 -80.34922804 7.04007391 -66 3 C-64.89398438 2.67257812 -63.78796875 2.34515625 -62.6484375 2.0078125 C-41.52901511 -3.98258267 -21.38669515 -4.36482364 0 0 Z " fill="#9898E0" transform="translate(277,275)"/>
<path d="M0 0 C2.62619281 1.80711449 4.18645601 3.19362179 5.79296875 5.921875 C5.79296875 6.581875 5.79296875 7.241875 5.79296875 7.921875 C6.45296875 7.921875 7.11296875 7.921875 7.79296875 7.921875 C13.19303134 15.12195846 13.65778783 24.26273714 12.79296875 32.921875 C10.67630041 42.4405452 5.89363708 49.39642945 -2.20703125 54.796875 C-10.31524997 59.39256385 -19.07070369 60.28459668 -28.14453125 58.26953125 C-37.26334819 55.31858077 -43.338949 50.10514649 -48.19921875 41.9140625 C-52.22067262 33.96467695 -52.81604558 24.5796184 -50.3671875 15.96875 C-49.1728383 13.41115373 -47.84723324 11.21815779 -46.20703125 8.921875 C-45.63726562 8.12007813 -45.0675 7.31828125 -44.48046875 6.4921875 C-32.71725778 -8.27233656 -15.45397014 -8.32273651 0 0 Z " fill="#9898E0" transform="translate(269.20703125,378.078125)"/>
<path d="M0 0 C0.625 1.75 0.625 1.75 1 4 C0.34964186 5.34136367 -0.3162955 6.67532254 -1 8 C-0.67 8.99 -0.34 9.98 0 11 C0.66 11.33 1.32 11.66 2 12 C2 13.65 2 15.3 2 17 C0.2925002 15.71937515 -1.37373596 14.38232443 -3 13 C-3 12.34 -3 11.68 -3 11 C-4.32 10.34 -5.64 9.68 -7 9 C-5.44499019 5.18315774 -2.96404505 2.80804268 0 0 Z " fill="#A9A6DE" transform="translate(90,231)"/>
<path d="M0 0 C3.33333333 1.66666667 6.66666667 3.33333333 10 5 C10 5.66 10 6.32 10 7 C10.804375 7.28875 11.60875 7.5775 12.4375 7.875 C15 9 15 9 16 11 C13.36 11 10.72 11 8 11 C7.7525 10.195625 7.505 9.39125 7.25 8.5625 C6.27761141 5.828919 6.27761141 5.828919 3.875 5.1875 C2.946875 5.0946875 2.946875 5.0946875 2 5 C2 4.34 2 3.68 2 3 C1.01 3.33 0.02 3.66 -1 4 C-0.67 2.68 -0.34 1.36 0 0 Z " fill="#A6A5DE" transform="translate(317,291)"/>
<path d="M0 0 C0.66 0.33 1.32 0.66 2 1 C1.21654285 2.17219543 0.42297164 3.33763668 -0.375 4.5 C-0.81585938 5.1496875 -1.25671875 5.799375 -1.7109375 6.46875 C-2.13632812 6.9740625 -2.56171875 7.479375 -3 8 C-3.66 8 -4.32 8 -5 8 C-5.33 8.99 -5.66 9.98 -6 11 C-6.845625 11.495 -7.69125 11.99 -8.5625 12.5 C-9.366875 12.995 -10.17125 13.49 -11 14 C-11 14.99 -11 15.98 -11 17 C-11.99 16.67 -12.98 16.34 -14 16 C-12.42840852 12.14245727 -9.98922513 9.85637068 -7 7 C-5.72652735 5.73181147 -4.45576341 4.46089807 -3.1875 3.1875 C-2.125 2.125 -1.0625 1.0625 0 0 Z " fill="#B6B5E1" transform="translate(22,149)"/>
<path d="M0 0 C1.03596041 3.21217256 1.07584301 3.8194214 -0.3125 7.125 C-2 10 -2 10 -4 12 C-4.99 12 -5.98 12 -7 12 C-6.67566492 6.64847115 -3.50295176 3.71719957 0 0 Z " fill="#9F9FD9" transform="translate(230,379)"/>
<path d="M0 0 C2 3 2 3 2 6 C2.66 6.66 3.32 7.32 4 8 C4.66 7.67 5.32 7.34 6 7 C6 8.98 6 10.96 6 13 C4 11.625 4 11.625 2 10 C2 9.34 2 8.68 2 8 C1.4225 7.731875 0.845 7.46375 0.25 7.1875 C-2.05550043 5.97070811 -4.02056192 4.69666121 -6 3 C-6 2.34 -6 1.68 -6 1 C-4.7934375 1.0309375 -4.7934375 1.0309375 -3.5625 1.0625 C-1.06645115 1.29633621 -1.06645115 1.29633621 0 0 Z " fill="#ACAADF" transform="translate(373,259)"/>
<path d="M0 0 C-1.28519565 2.86697492 -2.57129254 4.97607712 -5 7 C-5.66 7 -6.32 7 -7 7 C-7.33 7.66 -7.66 8.32 -8 9 C-8.99 9.33 -9.98 9.66 -11 10 C-11.66 9.67 -12.32 9.34 -13 9 C-13 8.34 -13 7.68 -13 7 C-10.6640625 5.2734375 -10.6640625 5.2734375 -7.625 3.375 C-6.62726563 2.74335938 -5.62953125 2.11171875 -4.6015625 1.4609375 C-2 0 -2 0 0 0 Z " fill="#A9A8DE" transform="translate(123,207)"/>
<path d="M0 0 C0.93423645 3.01031744 1.04449911 3.86650268 0 7 C0.66 7 1.32 7 2 7 C2 7.99 2 8.98 2 10 C1.01 10.33 0.02 10.66 -1 11 C-3.0625 9.25 -3.0625 9.25 -5 7 C-5 4.9375 -5 4.9375 -4 3 C-1.9375 1.25 -1.9375 1.25 0 0 Z " fill="#A19FDC" transform="translate(161,306)"/>
<path d="M0 0 C0.33 0.66 0.66 1.32 1 2 C0.34 2 -0.32 2 -1 2 C-1.2165625 3.175625 -1.2165625 3.175625 -1.4375 4.375 C-2 7 -2 7 -3 9 C-6.45043117 10.15014372 -9.35282355 11 -13 11 C-11.54712339 9.66072279 -10.08752741 8.32873153 -8.625 7 C-7.81289062 6.2575 -7.00078125 5.515 -6.1640625 4.75 C-4 3 -4 3 -2 3 C-2 2.34 -2 1.68 -2 1 C-1.34 0.67 -0.68 0.34 0 0 Z " fill="#B3B4E1" transform="translate(104,219)"/>
<path d="M0 0 C1.1328125 1.74609375 1.1328125 1.74609375 2 4 C0.32153305 8.50763546 -2.85268655 12.54233277 -7 15 C-7 13.68 -7 12.36 -7 11 C-6.34 11 -5.68 11 -5 11 C-4.67 9.02 -4.34 7.04 -4 5 C-3.01 4.67 -2.02 4.34 -1 4 C-0.26676204 1.98491642 -0.26676204 1.98491642 0 0 Z " fill="#A9A8DB" transform="translate(278,414)"/>
<path d="M0 0 C3.86252257 0.75529526 7.20180367 2.39484772 10.75 4.0625 C11.92046875 4.61035156 13.0909375 5.15820312 14.296875 5.72265625 C15.18890625 6.14417969 16.0809375 6.56570312 17 7 C16.01 7.66 15.02 8.32 14 9 C11.36 7.68 8.72 6.36 6 5 C6 4.34 6 3.68 6 3 C5.34 3 4.68 3 4 3 C4 3.66 4 4.32 4 5 C3.34 5 2.68 5 2 5 C2 4.01 2 3.02 2 2 C1.34 2 0.68 2 0 2 C0 1.34 0 0.68 0 0 Z " fill="#B3B2E0" transform="translate(346,190)"/>
<path d="M0 0 C5.09770828 -0.3718693 8.31465455 0.76636141 12.875 3 C14.02742188 3.556875 15.17984375 4.11375 16.3671875 4.6875 C17.23601562 5.120625 18.10484375 5.55375 19 6 C19 6.33 19 6.66 19 7 C16.03 6.67 13.06 6.34 10 6 C10 5.01 10 4.02 10 3 C9.36191406 2.95101563 8.72382813 2.90203125 8.06640625 2.8515625 C7.24011719 2.77679688 6.41382813 2.70203125 5.5625 2.625 C4.73878906 2.55539062 3.91507812 2.48578125 3.06640625 2.4140625 C2.38449219 2.27742188 1.70257813 2.14078125 1 2 C0.67 1.34 0.34 0.68 0 0 Z " fill="#ADADDB" transform="translate(288,279)"/>
<path d="M0 0 C0.33 0.99 0.66 1.98 1 3 C-0.23399063 4.36877116 -1.48780623 5.71969166 -2.75 7.0625 C-3.44609375 7.81660156 -4.1421875 8.57070313 -4.859375 9.34765625 C-7 11 -7 11 -9.140625 10.93359375 C-11 10 -11 10 -13 7 C-11.02 7.66 -9.04 8.32 -7 9 C-6.67 7.68 -6.34 6.36 -6 5 C-5.01 5 -4.02 5 -3 5 C-3 4.34 -3 3.68 -3 3 C-2.34 3 -1.68 3 -1 3 C-0.67 2.01 -0.34 1.02 0 0 Z " fill="#B2B2DD" transform="translate(317,336)"/>
<path d="M0 0 C-2.33333333 2.33333333 -4.66666667 4.66666667 -7 7 C-9.125 6.625 -9.125 6.625 -11 6 C-10.34 5.67 -9.68 5.34 -9 5 C-8.7834375 4.01 -8.7834375 4.01 -8.5625 3 C-8.376875 2.34 -8.19125 1.68 -8 1 C-5.07175348 0.02391783 -3.04386724 -0.08226668 0 0 Z " fill="#ACACDB" transform="translate(200,340)"/>
<path d="M0 0 C0 0.99 0 1.98 0 3 C-1.91345327 3.53251766 -3.8309295 4.05059483 -5.75 4.5625 C-6.81734375 4.85253906 -7.8846875 5.14257812 -8.984375 5.44140625 C-11.84335927 5.97098494 -13.31597383 5.98370862 -16 5 C-14.27656245 4.15488176 -12.54595947 3.32436646 -10.8125 2.5 C-9.36810547 1.80390625 -9.36810547 1.80390625 -7.89453125 1.09375 C-5.01077307 0.00407079 -3.04645139 -0.22277524 0 0 Z " fill="#ADACE0" transform="translate(211,279)"/>
<path d="M0 0 C2.41696872 -0.05411124 4.83271787 -0.09372278 7.25 -0.125 C7.93191406 -0.14175781 8.61382812 -0.15851563 9.31640625 -0.17578125 C13.0608235 -0.21213482 15.82352727 -0.07944349 19 2 C14.94894494 3.01276377 11.40492034 3.00240912 7.25 2.6875 C6.10015625 2.60886719 4.9503125 2.53023437 3.765625 2.44921875 C2.39664062 2.22685547 2.39664062 2.22685547 1 2 C0.67 1.34 0.34 0.68 0 0 Z " fill="#AFB1DF" transform="translate(272,171)"/>
<path d="M0 0 C0.33 1.32 0.66 2.64 1 4 C2.11375 4.0928125 2.11375 4.0928125 3.25 4.1875 C6.8185739 5.24185138 7.92245228 6.99909773 10 10 C5.8275894 9.48118887 3.74583179 8.28848726 0.6875 5.4375 C-0.00988281 4.79683594 -0.70726562 4.15617187 -1.42578125 3.49609375 C-1.94527344 3.00238281 -2.46476563 2.50867188 -3 2 C-2.01 1.34 -1.02 0.68 0 0 Z " fill="#AFB1DE" transform="translate(228,424)"/>
<path d="M0 0 C-2.86698342 3.49413605 -4.84150148 5.28836874 -9.3125 5.8125 C-11.1378125 5.9053125 -11.1378125 5.9053125 -13 6 C-10.65637653 1.31275306 -4.94157336 -0.59897859 0 0 Z " fill="#A8A7D9" transform="translate(193,287)"/>
<path d="M0 0 C1.32 0.99 2.64 1.98 4 3 C2.63016497 6.16115776 2.0109362 6.9927092 -1 9 C-2 8 -2 8 -2.1875 5.625 C-2 3 -2 3 0 0 Z " fill="#B0AFE0" transform="translate(340,308)"/>
<path d="M0 0 C1.67542976 0.28604898 3.34385343 0.61781233 5 1 C2.31767339 2.78821774 -0.30288961 4.20142604 -3.1875 5.625 C-4.08855469 6.07101562 -4.98960937 6.51703125 -5.91796875 6.9765625 C-6.94857422 7.48316406 -6.94857422 7.48316406 -8 8 C-7.6875 6.10546875 -7.6875 6.10546875 -7 4 C-4 2.3125 -4 2.3125 -1 1 C-0.67 0.67 -0.34 0.34 0 0 Z " fill="#B7B8E1" transform="translate(212,329)"/>
<path d="M0 0 C2.03833424 1.2739589 4.03852126 2.61061923 6 4 C6 4.66 6 5.32 6 6 C7.32 6.66 8.64 7.32 10 8 C7.66666667 8 5.33333333 8 3 8 C3 7.34 3 6.68 3 6 C2.01 6.33 1.02 6.66 0 7 C0 4.69 0 2.38 0 0 Z " fill="#AFAFE2" transform="translate(459,134)"/>
<path d="M0 0 C0 0.99 0 1.98 0 3 C-3.6922906 6.6922906 -7.06128619 7.83794969 -12 9 C-8.32442148 4.99027798 -4.81033104 2.54664585 0 0 Z " fill="#B3B2DE" transform="translate(67,116)"/>
<path d="M0 0 C2.57421875 0.20703125 2.57421875 0.20703125 5.6875 0.8125 C6.75871094 1.01230469 7.82992188 1.21210937 8.93359375 1.41796875 C10.45146484 1.70607422 10.45146484 1.70607422 12 2 C14.33064069 2.36064823 16.6631891 2.68134397 19 3 C19 3.33 19 3.66 19 4 C17.02090602 4.02686553 15.04171029 4.04633375 13.0625 4.0625 C11.96035156 4.07410156 10.85820312 4.08570312 9.72265625 4.09765625 C7 4 7 4 6 3 C4.65252916 2.76924918 3.29622435 2.58846937 1.9375 2.4375 C0.638125 2.293125 -0.66125 2.14875 -2 2 C-1.34 1.34 -0.68 0.68 0 0 Z " fill="#B7B7E4" transform="translate(313,69)"/>
<path d="M0 0 C1.03253906 0.01353516 1.03253906 0.01353516 2.0859375 0.02734375 C3.76577838 0.05067487 5.44543746 0.08653674 7.125 0.125 C7.125 0.455 7.125 0.785 7.125 1.125 C4.93847261 1.46465474 2.75071975 1.79642477 0.5625 2.125 C-1.26474609 2.4034375 -1.26474609 2.4034375 -3.12890625 2.6875 C-6.75127848 3.11055077 -10.23212046 3.20001425 -13.875 3.125 C-13.875 2.795 -13.875 2.465 -13.875 2.125 C-9.17038677 0.26367327 -4.9992304 -0.1259496 0 0 Z " fill="#B8B7E1" transform="translate(210.875,114.875)"/>
<path d="M0 0 C3.33333333 1.66666667 6.66666667 3.33333333 10 5 C9.67 5.66 9.34 6.32 9 7 C6.69 6.34 4.38 5.68 2 5 C2 4.34 2 3.68 2 3 C1.01 3.33 0.02 3.66 -1 4 C-0.67 2.68 -0.34 1.36 0 0 Z " fill="#B2B3DF" transform="translate(317,291)"/>
<path d="M0 0 C0.33 0.66 0.66 1.32 1 2 C1.66 2 2.32 2 3 2 C1.70700306 4.88437779 0.34058637 6.87219421 -2 9 C-3.32 8.34 -4.64 7.68 -6 7 C-4.35 6.67 -2.7 6.34 -1 6 C-0.67 4.02 -0.34 2.04 0 0 Z " fill="#AEAFDD" transform="translate(385,265)"/>
<path d="M0 0 C0.66 0 1.32 0 2 0 C2.66 1.65 3.32 3.3 4 5 C2.35 6.32 0.7 7.64 -1 9 C-2.0326802 6.21176345 -2.04509293 5.1322726 -1.0625 2.25 C-0.711875 1.5075 -0.36125 0.765 0 0 Z " fill="#B2B2DD" transform="translate(413,235)"/>
<path d="M0 0 C-2.83430453 3.2542015 -4.68607774 4.5206753 -9 5 C-9 3.68 -9 2.36 -9 1 C-5.8035914 -0.06546953 -3.34252724 -0.07427838 0 0 Z " fill="#A2A0D9" transform="translate(152,193)"/>
<path d="M0 0 C-1.07749442 0.82022749 -2.16229508 1.63086169 -3.25 2.4375 C-3.85328125 2.88996094 -4.4565625 3.34242188 -5.078125 3.80859375 C-7.06292756 5.03900997 -8.71987655 5.56112668 -11 6 C-11 5.01 -11 4.02 -11 3 C-10.01 2.67 -9.02 2.34 -8 2 C-7.67 1.34 -7.34 0.68 -7 0 C-4.0262656 -1.09036928 -3.11592499 -1.03864166 0 0 Z " fill="#AAAEDA" transform="translate(157,245)"/>
<path d="M0 0 C2.5 0.125 2.5 0.125 5 1 C6.3125 3.0625 6.3125 3.0625 7 5 C6.01 5.495 6.01 5.495 5 6 C2.5249829 4.88568235 0.32116581 3.41849022 -2 2 C-1.34 1.34 -0.68 0.68 0 0 Z " fill="#B1B1DC" transform="translate(405,156)"/>
<path d="M0 0 C1.32 0.33 2.64 0.66 4 1 C-0.455 3.97 -0.455 3.97 -5 7 C-5.33 6.01 -5.66 5.02 -6 4 C-5.01 4 -4.02 4 -3 4 C-3 3.34 -3 2.68 -3 2 C-2.01 1.34 -1.02 0.68 0 0 Z " fill="#B1B3DC" transform="translate(95,155)"/>
<path d="M0 0 C0.66 0 1.32 0 2 0 C3.76462683 3.08809695 4 4.23312136 4 8 C4.99 8.33 5.98 8.66 7 9 C7 9.66 7 10.32 7 11 C4.32423308 9.99382318 3.2214892 9.45785454 1.953125 6.8359375 C1.72109375 6.02382813 1.4890625 5.21171875 1.25 4.375 C1.00765625 3.55773437 0.7653125 2.74046875 0.515625 1.8984375 C0.34546875 1.27195312 0.1753125 0.64546875 0 0 Z " fill="#AFAFE0" transform="translate(219,413)"/>
<path d="M0 0 C1.98 0 3.96 0 6 0 C1.375 4.875 1.375 4.875 -2 6 C-2.33 5.01 -2.66 4.02 -3 3 C-2.34 2.67 -1.68 2.34 -1 2 C-0.67 1.34 -0.34 0.68 0 0 Z " fill="#ACADDC" transform="translate(140,251)"/>
<path d="M0 0 C-0.33 0.99 -0.66 1.98 -1 3 C-2.65 3 -4.3 3 -6 3 C-6 3.66 -6 4.32 -6 5 C-7.32 4.34 -8.64 3.68 -10 3 C-3.375 0 -3.375 0 0 0 Z " fill="#AFAFE1" transform="translate(164,186)"/>
<path d="M0 0 C0.99 0.33 1.98 0.66 3 1 C2.34 2.65 1.68 4.3 1 6 C-0.65 6 -2.3 6 -4 6 C-1.125 1.125 -1.125 1.125 0 0 Z " fill="#A5A5DC" transform="translate(27,145)"/>
<path d="M0 0 C2.64 0.66 5.28 1.32 8 2 C6.25 3.5625 6.25 3.5625 4 5 C1.75 4.6875 1.75 4.6875 0 4 C0 2.68 0 1.36 0 0 Z " fill="#A9A7E1" transform="translate(359,81)"/>
<path d="M0 0 C2.475 0.495 2.475 0.495 5 1 C5 1.66 5 2.32 5 3 C5.66 3 6.32 3 7 3 C6.67 4.32 6.34 5.64 6 7 C4.02 4.69 2.04 2.38 0 0 Z " fill="#AFAEE0" transform="translate(170,326)"/>
<path d="M0 0 C1.65 0 3.3 0 5 0 C3.38405168 2.04119788 1.7143618 4.04072937 0 6 C-0.66 6 -1.32 6 -2 6 C-2 5.01 -2 4.02 -2 3 C-1.34 3 -0.68 3 0 3 C0 2.01 0 1.02 0 0 Z " fill="#B0ADDF" transform="translate(131,258)"/>
<path d="M0 0 C3.3 0.66 6.6 1.32 10 2 C10 2.33 10 2.66 10 3 C3.565 3.495 3.565 3.495 -3 4 C-2.01 2.68 -1.02 1.36 0 0 Z " fill="#C3C2E8" transform="translate(222,218)"/>
<path d="M0 0 C1.32 0.33 2.64 0.66 4 1 C-0.455 3.97 -0.455 3.97 -5 7 C-5 6.01 -5 5.02 -5 4 C-4.34 4 -3.68 4 -3 4 C-3 3.34 -3 2.68 -3 2 C-2.01 1.34 -1.02 0.68 0 0 Z " fill="#AFAFDD" transform="translate(80,165)"/>
<path d="M0 0 C3.55780196 0.60990891 6.6828589 1.5783681 10 3 C9.67 3.66 9.34 4.32 9 5 C7.68 5 6.36 5 5 5 C3 3 3 3 2 1 C1.34 0.67 0.68 0.34 0 0 Z " fill="#B0AFDF" transform="translate(255,373)"/>
<path d="M0 0 C0.78375 0.04125 1.5675 0.0825 2.375 0.125 C2.705 1.775 3.035 3.425 3.375 5.125 C0.735 4.135 -1.905 3.145 -4.625 2.125 C-2.625 0.125 -2.625 0.125 0 0 Z " fill="#B0AFDC" transform="translate(291.625,330.875)"/>
<path d="M0 0 C1.48117801 0.28127421 2.95993249 0.57533732 4.4375 0.875 C5.67306641 1.11863281 5.67306641 1.11863281 6.93359375 1.3671875 C7.61550781 1.57601562 8.29742187 1.78484375 9 2 C9.33 2.66 9.66 3.32 10 4 C2.25 3.125 2.25 3.125 0 2 C0 1.34 0 0.68 0 0 Z " fill="#B5B5E2" transform="translate(336,186)"/>
<path d="M0 0 C2.02045442 0.60183749 4.02111039 1.27306096 6 2 C6.33 2.66 6.66 3.32 7 4 C3.37 3.67 -0.26 3.34 -4 3 C-2.68 2.67 -1.36 2.34 0 2 C0 1.34 0 0.68 0 0 Z " fill="#BABAE5" transform="translate(310,117)"/>
<path d="M0 0 C0.33 1.32 0.66 2.64 1 4 C-0.98 4.99 -2.96 5.98 -5 7 C-4.60196439 4.11424181 -4.20990931 3.17810487 -1.9375 1.25 C-1.298125 0.8375 -0.65875 0.425 0 0 Z " fill="#C2C1E7" transform="translate(161,306)"/>
<path d="M0 0 C4.21878192 -0.19622241 7.17010894 0.19769832 11 2 C11 2.33 11 2.66 11 3 C9.35333797 2.8864371 7.70763918 2.75882619 6.0625 2.625 C5.14597656 2.55539062 4.22945313 2.48578125 3.28515625 2.4140625 C2.15400391 2.20910156 2.15400391 2.20910156 1 2 C0.67 1.34 0.34 0.68 0 0 Z " fill="#B8B8E0" transform="translate(288,279)"/>
<path d="M0 0 C0.33 0.66 0.66 1.32 1 2 C3.01669827 3.13350534 3.01669827 3.13350534 5 4 C2.39417629 4.93065133 1.35801776 5.14917407 -1.25 4.0625 C-1.8275 3.711875 -2.405 3.36125 -3 3 C-3 2.34 -3 1.68 -3 1 C-2.01 0.67 -1.02 0.34 0 0 Z " fill="#AEADDF" transform="translate(316,228)"/>
<path d="M0 0 C-2.97 2.475 -2.97 2.475 -6 5 C-6.66 4.67 -7.32 4.34 -8 4 C-8 3.34 -8 2.68 -8 2 C-7.34 2 -6.68 2 -6 2 C-6 1.34 -6 0.68 -6 0 C-3.50907189 -1.24546405 -2.58919267 -0.7767578 0 0 Z " fill="#B2B3DE" transform="translate(71,176)"/>
<path d="M0 0 C0.66 1.32 1.32 2.64 2 4 C0.35 5.32 -1.3 6.64 -3 8 C-3 6.68 -3 5.36 -3 4 C-2.34 4 -1.68 4 -1 4 C-0.67 2.68 -0.34 1.36 0 0 Z " fill="#B0AEDF" transform="translate(274,421)"/>
<path d="M0 0 C0.66 0.33 1.32 0.66 2 1 C1.1875 3.9375 1.1875 3.9375 0 7 C-0.99 7.33 -1.98 7.66 -3 8 C-2.45276317 4.62537285 -1.9451 2.91765 0 0 Z " fill="#ABAADF" transform="translate(165,302)"/>
<path d="M0 0 C2.3125 0.1875 2.3125 0.1875 5 1 C6.8125 3.5625 6.8125 3.5625 8 6 C7.34 6 6.68 6 6 6 C6 5.34 6 4.68 6 4 C5.195625 3.71125 4.39125 3.4225 3.5625 3.125 C1 2 1 2 0 0 Z " fill="#B3B3E2" transform="translate(423,170)"/>
<path d="M0 0 C1.98 0.66 3.96 1.32 6 2 C6 2.99 6 3.98 6 5 C6.66 5.33 7.32 5.66 8 6 C7.01 6 6.02 6 5 6 C4.731875 5.360625 4.46375 4.72125 4.1875 4.0625 C3.11332248 1.66868314 3.11332248 1.66868314 0 1 C0 0.67 0 0.34 0 0 Z " fill="#ADADDF" transform="translate(161,317)"/>
<path d="M0 0 C1.32 0.66 2.64 1.32 4 2 C2 4 2 4 -0.625 4.125 C-1.40875 4.08375 -2.1925 4.0425 -3 4 C-3 3.34 -3 2.68 -3 2 C-2.01 1.34 -1.02 0.68 0 0 Z " fill="#AAA9E0" transform="translate(171,298)"/>
<path d="M0 0 C0.66 0 1.32 0 2 0 C0.60667426 3.36720387 -0.9789286 4.9859524 -4 7 C-4 5.68 -4 4.36 -4 3 C-2.68 2.67 -1.36 2.34 0 2 C0 1.34 0 0.68 0 0 Z " fill="#B6B6DE" transform="translate(125,265)"/>
<path d="M0 0 C1.98 0.66 3.96 1.32 6 2 C5.01 2.495 5.01 2.495 4 3 C3.67 3.99 3.34 4.98 3 6 C0 2.25 0 2.25 0 0 Z " fill="#B4B3E1" transform="translate(366,200)"/>
<path d="M0 0 C2.0625 0.4375 2.0625 0.4375 4 1 C3.67 1.66 3.34 2.32 3 3 C3.66 3.33 4.32 3.66 5 4 C3.35 4.33 1.7 4.66 0 5 C-0.5625 3.0625 -0.5625 3.0625 -1 1 C-0.67 0.67 -0.34 0.34 0 0 Z " fill="#ACAAE6" transform="translate(106,146)"/>
<path d="M0 0 C-3.22515763 1.73662334 -6.51329166 2.8905928 -10 4 C-9.67 3.01 -9.34 2.02 -9 1 C-6.03421164 -0.16513114 -3.15436364 -0.08762121 0 0 Z " fill="#B6B6DF" transform="translate(142,134)"/>
</svg>
